<svg width="36" height="22" viewBox="0 0 36 22" fill="none" xmlns="http://www.w3.org/2000/svg">
<path fill-rule="evenodd" clip-rule="evenodd" d="M24.1629 11.0002L35.9272 1.36886C35.9757 1.52541 36.0003 1.68711 36 1.84954V20.1512C36.0003 20.3136 35.9757 20.4753 35.9272 20.6318L24.1629 11.0002ZM1.2037 21.8206C1.48412 21.9389 1.79131 22.0002 2.10241 22H33.8973C34.2612 22 34.6186 21.9163 34.9342 21.7568L22.9799 11.9691L20.8111 13.7441C20.0673 14.3396 19.0924 14.6618 18.0868 14.6446C17.0762 14.6419 16.1027 14.3082 15.3563 13.709L13.2335 11.9705L1.2037 21.8206ZM0.119991 1.23193C0.0399127 1.43018 -0.000823069 1.639 1.26429e-05 1.84928V20.1509C-0.000824426 20.3612 0.039912 20.57 0.119991 20.7682L12.0507 11L0.119991 1.23193ZM33.8956 0.000639301L2.10213 0.000884671C1.79102 0.000639317 1.48383 0.0619818 1.20342 0.180251L13.7777 10.4768L13.783 10.481L16.4548 12.6689C16.9049 13.0289 17.4908 13.2284 18.0991 13.2291C18.6931 13.2421 19.2704 13.0551 19.7127 12.706L22.4325 10.4807L22.4364 10.4773L34.9342 0.242916C34.6187 0.0836691 34.2612 0 33.8974 0L33.8956 0.000639301Z" fill="#23587E"/>
</svg>
