<svg width="38" height="37" viewBox="0 0 38 37" fill="none" xmlns="http://www.w3.org/2000/svg">
<path d="M10.7619 0.0952148C5.17413 0.0952148 0.642822 4.62652 0.642822 10.2143V26.4047C0.642822 31.9925 5.17413 36.5238 10.7619 36.5238H26.9523C32.5401 36.5238 37.0714 31.9925 37.0714 26.4047V10.2143C37.0714 4.62652 32.5401 0.0952148 26.9523 0.0952148H10.7619ZM31 4.14283C32.1171 4.14283 33.0238 5.0495 33.0238 6.16664C33.0238 7.28379 32.1171 8.19045 31 8.19045C29.8828 8.19045 28.9762 7.28379 28.9762 6.16664C28.9762 5.0495 29.8828 4.14283 31 4.14283ZM18.8571 8.19045C24.4448 8.19045 28.9762 12.7218 28.9762 18.3095C28.9762 23.8972 24.4448 28.4285 18.8571 28.4285C13.2694 28.4285 8.73806 23.8972 8.73806 18.3095C8.73806 12.7218 13.2694 8.19045 18.8571 8.19045ZM18.8571 12.2381C17.2469 12.2381 15.7026 12.8777 14.564 14.0164C13.4253 15.155 12.7857 16.6993 12.7857 18.3095C12.7857 19.9197 13.4253 21.464 14.564 22.6026C15.7026 23.7413 17.2469 24.3809 18.8571 24.3809C20.4674 24.3809 22.0116 23.7413 23.1503 22.6026C24.2889 21.464 24.9285 19.9197 24.9285 18.3095C24.9285 16.6993 24.2889 15.155 23.1503 14.0164C22.0116 12.8777 20.4674 12.2381 18.8571 12.2381Z" fill="#23587E"/>
</svg>
