<svg xmlns="http://www.w3.org/2000/svg" version="1.1" width="709px" height="1423px" style="shape-rendering:geometricPrecision; text-rendering:geometricPrecision; image-rendering:optimizeQuality; fill-rule:evenodd; clip-rule:evenodd" xmlns:xlink="http://www.w3.org/1999/xlink">
<g style="filter: drop-shadow(0px 17px 12px rgba(0, 0, 0, 0.28));" ><path style="opacity:0.976" fill="#d15e04" d="M 340.5,19.5 C 341.552,19.3505 342.552,19.5172 343.5,20C 360.293,38.0806 371.459,59.2473 377,83.5C 381.91,117.334 370.244,143.667 342,162.5C 304.254,137.883 294.921,104.883 314,63.5C 321.071,47.6761 329.905,33.0095 340.5,19.5 Z"/></g>
<g style="filter: drop-shadow(0px 17px 12px rgba(0, 0, 0, 0.28));" ><path style="opacity:0.971" fill="#d15e04" d="M 114.5,183.5 C 140.722,188.853 162.555,201.519 180,221.5C 190.401,239.523 191.234,258.023 182.5,277C 145.522,275.595 123.355,256.762 116,220.5C 113.978,208.202 113.478,195.869 114.5,183.5 Z"/></g>
<g style="filter: drop-shadow(0px 17px 12px rgba(0, 0, 0, 0.28));" ><path style="opacity:0.972" fill="#d15e04" d="M 568.5,183.5 C 569.833,183.5 571.167,183.5 572.5,183.5C 574.561,203.108 572.061,222.108 565,240.5C 552.297,265.354 531.964,277.354 504,276.5C 491.763,243.205 500.93,217.705 531.5,200C 543.286,193.026 555.62,187.526 568.5,183.5 Z"/></g>
<g style="filter: drop-shadow(0px 17px 12px rgba(0, 0, 0, 0.28));" ><path style="opacity:0.993" fill="#d25e05" d="M 392.5,651.5 C 395.224,615.811 398.224,580.144 401.5,544.5C 401.709,543.006 402.376,541.839 403.5,541C 410.898,540.156 418.231,538.989 425.5,537.5C 425.386,534.006 424.22,531.006 422,528.5C 415.642,530.453 409.142,531.453 402.5,531.5C 402.778,523.83 403.111,516.164 403.5,508.5C 400.5,508.5 397.5,508.5 394.5,508.5C 393.877,516.507 393.211,524.507 392.5,532.5C 384.453,532.723 376.453,532.223 368.5,531C 364.111,529.971 360.111,528.138 356.5,525.5C 382.446,508.943 395.946,485.276 397,454.5C 392.804,441.137 383.637,434.137 369.5,433.5C 359.817,434.93 351.984,439.596 346,447.5C 332.201,432.811 317.535,431.811 302,444.5C 298.274,449.176 296.441,454.51 296.5,460.5C 299.28,485.232 310.28,505.399 329.5,521C 333.007,523.254 336.673,525.254 340.5,527C 335.223,529.869 329.556,531.535 323.5,532C 314.84,532.5 306.173,532.666 297.5,532.5C 296.444,527.219 295.777,521.886 295.5,516.5C 292.167,516.833 288.833,517.167 285.5,517.5C 286.425,521.79 287.091,526.124 287.5,530.5C 283.738,530.348 280.072,529.681 276.5,528.5C 274.898,531.338 274.398,534.338 275,537.5C 280.066,538.89 285.232,539.89 290.5,540.5C 297.661,580.639 305.328,620.639 313.5,660.5C 294.701,653.536 281.201,640.869 273,622.5C 266.691,605.955 262.024,588.955 259,571.5C 253.627,555.421 246.627,540.087 238,525.5C 227.722,510.222 217.055,495.222 206,480.5C 185.526,444.99 178.859,406.99 186,366.5C 194.763,318.791 219.596,282.291 260.5,257C 297.782,239.037 336.782,234.037 377.5,242C 443.078,256.578 482.911,296.745 497,362.5C 503.776,400.175 498.109,435.842 480,469.5C 468.416,487.666 457.083,505.999 446,524.5C 435.657,542.862 429.324,562.529 427,583.5C 423.739,596.616 420.072,609.616 416,622.5C 412.019,632.303 406.186,640.803 398.5,648C 396.595,649.421 394.595,650.588 392.5,651.5 Z"/></g>
<g style="filter: drop-shadow(0px 17px 12px rgba(0, 0, 0, 0.28));" ><path style="opacity:0.965" fill="#d15e04" d="M 609.5,368.5 C 626.524,368.138 642.857,371.305 658.5,378C 660.555,378.687 662.221,379.854 663.5,381.5C 652.183,398.992 636.516,410.492 616.5,416C 599.397,418.243 584.731,413.41 572.5,401.5C 578.35,382.972 590.683,371.972 609.5,368.5 Z"/></g>
<g style="filter: drop-shadow(0px 17px 12px rgba(0, 0, 0, 0.28));" ><path style="opacity:0.966" fill="#d15e04" d="M 62.5,403.5 C 87.385,400.518 104.552,410.518 114,433.5C 114.667,435.167 114.667,436.833 114,438.5C 90.384,455.921 66.884,455.754 43.5,438C 36.0947,431.265 29.428,423.932 23.5,416C 35.8449,409.503 48.8449,405.336 62.5,403.5 Z"/></g>
<g style="filter: drop-shadow(0px 17px 12px rgba(0, 0, 0, 0.28));" ><path style="opacity:0.997" fill="#fefaf7" d="M 392.5,651.5 C 392.896,654.044 392.229,656.211 390.5,658C 387.568,659.145 384.568,659.978 381.5,660.5C 381.5,659.5 381.5,658.5 381.5,657.5C 385.925,620.411 389.258,583.078 391.5,545.5C 392.434,544.432 392.768,543.099 392.5,541.5C 389.833,541.5 387.167,541.5 384.5,541.5C 371.995,542.166 360.495,539.166 350,532.5C 338.127,539.344 325.293,542.678 311.5,542.5C 307.524,541.836 303.524,541.503 299.5,541.5C 307.195,581.975 315.528,622.309 324.5,662.5C 325.15,664.435 325.483,666.435 325.5,668.5C 322.04,668.475 318.706,667.808 315.5,666.5C 314.95,664.343 314.283,662.343 313.5,660.5C 305.328,620.639 297.661,580.639 290.5,540.5C 285.232,539.89 280.066,538.89 275,537.5C 274.398,534.338 274.898,531.338 276.5,528.5C 280.072,529.681 283.738,530.348 287.5,530.5C 287.091,526.124 286.425,521.79 285.5,517.5C 288.833,517.167 292.167,516.833 295.5,516.5C 295.777,521.886 296.444,527.219 297.5,532.5C 306.173,532.666 314.84,532.5 323.5,532C 329.556,531.535 335.223,529.869 340.5,527C 336.673,525.254 333.007,523.254 329.5,521C 310.28,505.399 299.28,485.232 296.5,460.5C 296.441,454.51 298.274,449.176 302,444.5C 317.535,431.811 332.201,432.811 346,447.5C 351.984,439.596 359.817,434.93 369.5,433.5C 383.637,434.137 392.804,441.137 397,454.5C 395.946,485.276 382.446,508.943 356.5,525.5C 360.111,528.138 364.111,529.971 368.5,531C 376.453,532.223 384.453,532.723 392.5,532.5C 393.211,524.507 393.877,516.507 394.5,508.5C 397.5,508.5 400.5,508.5 403.5,508.5C 403.111,516.164 402.778,523.83 402.5,531.5C 409.142,531.453 415.642,530.453 422,528.5C 424.22,531.006 425.386,534.006 425.5,537.5C 418.231,538.989 410.898,540.156 403.5,541C 402.376,541.839 401.709,543.006 401.5,544.5C 398.224,580.144 395.224,615.811 392.5,651.5 Z"/></g>
<g style="filter: drop-shadow(0px 17px 12px rgba(0, 0, 0, 0.28));" ><path style="opacity:1" fill="#d2600a" d="M 365.5,443.5 C 384.211,443.877 391.044,453.211 386,471.5C 380.113,491.378 368.279,506.545 350.5,517C 343.584,517.882 337.584,515.882 332.5,511C 319.779,499.395 311.279,485.228 307,468.5C 304.199,454.991 309.532,447.325 323,445.5C 329.863,446.675 335.529,450.008 340,455.5C 340.667,456.833 340.667,458.167 340,459.5C 334.842,470.635 332.842,482.302 334,494.5C 340.801,507.518 349.468,508.851 360,498.5C 363.161,490.557 363.161,482.557 360,474.5C 358.076,468.386 355.576,462.553 352.5,457C 355.679,451.322 360.012,446.822 365.5,443.5 Z"/></g>
<g style="filter: drop-shadow(0px 17px 12px rgba(0, 0, 0, 0.28));" ><path style="opacity:1" fill="#d46413" d="M 346.5,468.5 C 351.059,475.784 352.893,483.784 352,492.5C 349.142,496.405 346.475,496.405 344,492.5C 342.991,484.291 343.824,476.291 346.5,468.5 Z"/></g>
<g style="filter: drop-shadow(0px 17px 12px rgba(0, 0, 0, 0.28));" ><path style="opacity:0.986" fill="#d25e05" d="M 384.5,541.5 C 386.607,542.468 388.941,542.802 391.5,542.5C 391.5,543.5 391.5,544.5 391.5,545.5C 389.258,583.078 385.925,620.411 381.5,657.5C 373.384,660.244 365.051,662.244 356.5,663.5C 358.274,666.715 359.774,670.048 361,673.5C 372.588,665.194 384.755,664.361 397.5,671C 404.156,676.665 411.49,681.332 419.5,685C 421.847,686.191 422.68,688.024 422,690.5C 410.533,702.743 397.033,705.91 381.5,700C 376.237,694.735 370.404,690.235 364,686.5C 365.927,702.348 363.927,717.681 358,732.5C 352.638,736.415 347.638,735.749 343,730.5C 342.042,728.801 341.542,726.967 341.5,725C 343.461,718.116 345.628,711.282 348,704.5C 351.128,690.863 351.295,677.197 348.5,663.5C 340.414,663.801 332.414,663.467 324.5,662.5C 315.528,622.309 307.195,581.975 299.5,541.5C 303.524,541.503 307.524,541.836 311.5,542.5C 325.293,542.678 338.127,539.344 350,532.5C 360.495,539.166 371.995,542.166 384.5,541.5 Z"/></g>
<g style="filter: drop-shadow(0px 20px 8px rgba(0, 0, 0, 0.2));" ><path style="opacity:1" fill="#eab286" d="M 384.5,541.5 C 387.167,541.5 389.833,541.5 392.5,541.5C 392.768,543.099 392.434,544.432 391.5,545.5C 391.5,544.5 391.5,543.5 391.5,542.5C 388.941,542.802 386.607,542.468 384.5,541.5 Z"/></g>
<g style="filter: drop-shadow(0px 20px 8px rgba(0, 0, 0, 0.2));" ><path style="opacity:0.877" fill="#d15e04" d="M 493.5,777.5 C 499.868,777.17 506.202,777.504 512.5,778.5C 506.982,784.184 501.649,790.017 496.5,796C 491.833,796.667 487.167,796.667 482.5,796C 486.052,789.723 489.719,783.556 493.5,777.5 Z"/></g>
<g style="filter: drop-shadow(0px 20px 8px rgba(0, 0, 0, 0.2));" ><path style="opacity:0.956" fill="#d15e04" d="M 236.5,800.5 C 254.439,798.525 265.272,806.191 269,823.5C 269.667,848.167 269.667,872.833 269,897.5C 267.354,909.143 260.854,916.31 249.5,919C 237.091,921.778 226.591,918.611 218,909.5C 216.073,906.052 214.739,902.385 214,898.5C 213.333,872.833 213.333,847.167 214,821.5C 216.577,809.086 224.077,802.086 236.5,800.5 Z M 237.5,818.5 C 243.991,816.845 248.158,819.178 250,825.5C 250.667,848.5 250.667,871.5 250,894.5C 247.951,901.632 243.451,903.799 236.5,901C 234.513,899.681 233.346,897.848 233,895.5C 232.333,871.833 232.333,848.167 233,824.5C 233.804,821.854 235.304,819.854 237.5,818.5 Z"/></g>
<g style="filter: drop-shadow(0px 20px 8px rgba(0, 0, 0, 0.2));" ><path style="opacity:0.956" fill="#d15e04" d="M 487.5,800.5 C 495.255,800.018 502.589,801.518 509.5,805C 515.123,809.064 518.623,814.564 520,821.5C 520.667,847.167 520.667,872.833 520,898.5C 517.939,909.561 511.439,916.394 500.5,919C 491.339,920.557 482.672,919.223 474.5,915C 468.89,910.513 465.724,904.68 465,897.5C 464.333,872.5 464.333,847.5 465,822.5C 466.037,816.594 468.537,811.427 472.5,807C 477.142,803.74 482.142,801.573 487.5,800.5 Z M 488.5,818.5 C 494.489,817.065 498.655,819.065 501,824.5C 501.667,848.167 501.667,871.833 501,895.5C 498.412,901.811 493.912,903.644 487.5,901C 485.683,899.2 484.516,897.034 484,894.5C 483.333,871.5 483.333,848.5 484,825.5C 484.904,822.767 486.404,820.433 488.5,818.5 Z"/></g>
<g style="filter: drop-shadow(0px 20px 8px rgba(0, 0, 0, 0.2));" ><path style="opacity:0.962" fill="#d15e04" d="M 650.5,800.5 C 659.618,799.821 667.951,801.988 675.5,807C 679.471,811.442 681.971,816.609 683,822.5C 683.667,847.833 683.667,873.167 683,898.5C 680.939,909.561 674.439,916.394 663.5,919C 654.339,920.557 645.672,919.223 637.5,915C 631.89,910.513 628.724,904.68 628,897.5C 627.333,872.5 627.333,847.5 628,822.5C 630.136,809.529 637.636,802.196 650.5,800.5 Z M 651.5,818.5 C 658.084,816.868 662.25,819.202 664,825.5C 664.667,848.833 664.667,872.167 664,895.5C 661.412,901.811 656.912,903.644 650.5,901C 648.683,899.2 647.516,897.034 647,894.5C 646.333,871.5 646.333,848.5 647,825.5C 647.904,822.767 649.404,820.433 651.5,818.5 Z"/></g>
<g style="filter: drop-shadow(0px 20px 8px rgba(0, 0, 0, 0.2));" ><path style="opacity:0.959" fill="#d15e04" d="M 24.5,802.5 C 30.8333,802.5 37.1667,802.5 43.5,802.5C 43.5,835.5 43.5,868.5 43.5,901.5C 53.5,901.5 63.5,901.5 73.5,901.5C 73.5,907.167 73.5,912.833 73.5,918.5C 57.1667,918.5 40.8333,918.5 24.5,918.5C 24.5,879.833 24.5,841.167 24.5,802.5 Z"/></g>
<g style="filter: drop-shadow(0px 20px 8px rgba(0, 0, 0, 0.2));" ><path style="opacity:0.952" fill="#d15e04" d="M 94.5,802.5 C 103.833,802.5 113.167,802.5 122.5,802.5C 128.221,841.212 134.221,879.878 140.5,918.5C 134.158,918.666 127.825,918.5 121.5,918C 119.805,911.304 118.805,904.47 118.5,897.5C 111.167,897.5 103.833,897.5 96.5,897.5C 95.6079,904.519 94.6079,911.519 93.5,918.5C 87.4632,918.829 81.4632,918.496 75.5,917.5C 81.9422,879.18 88.2755,840.847 94.5,802.5 Z M 106.5,827.5 C 109.857,844.635 112.857,861.968 115.5,879.5C 110.208,880.495 104.875,880.828 99.5,880.5C 101.927,862.844 104.26,845.177 106.5,827.5 Z"/></g>
<g style="filter: drop-shadow(0px 20px 8px rgba(0, 0, 0, 0.2));" ><path style="opacity:0.956" fill="#d15e04" d="M 147.5,802.5 C 160.504,802.333 173.504,802.5 186.5,803C 196.856,805.859 202.356,812.693 203,823.5C 204.161,832.444 203.161,841.11 200,849.5C 197.795,852.04 195.295,854.207 192.5,856C 202.992,863.226 206.992,873.226 204.5,886C 206.71,898.055 203.043,907.722 193.5,915C 190.637,916.399 187.637,917.399 184.5,918C 172.171,918.5 159.838,918.667 147.5,918.5C 147.5,879.833 147.5,841.167 147.5,802.5 Z M 166.5,819.5 C 178.949,816.54 184.949,821.374 184.5,834C 184.871,846.338 178.871,851.505 166.5,849.5C 166.5,839.5 166.5,829.5 166.5,819.5 Z M 166.5,866.5 C 181.326,863.661 187.659,869.661 185.5,884.5C 185.333,888.167 185.167,891.833 185,895.5C 184.215,897.286 183.049,898.786 181.5,900C 176.566,901.16 171.566,901.66 166.5,901.5C 166.5,889.833 166.5,878.167 166.5,866.5 Z"/></g>
<g style="filter: drop-shadow(0px 20px 8px rgba(0, 0, 0, 0.2));" ><path style="opacity:0.966" fill="#d15e04" d="M 280.5,802.5 C 293.171,802.333 305.838,802.5 318.5,803C 326.591,804.759 331.758,809.592 334,817.5C 335.513,826.447 335.846,835.447 335,844.5C 334.403,851.702 331.236,857.369 325.5,861.5C 330.891,865.417 334.058,870.751 335,877.5C 335.333,889.167 335.667,900.833 336,912.5C 336.346,914.218 336.846,915.885 337.5,917.5C 330.866,918.497 324.2,918.83 317.5,918.5C 317.019,904.789 316.186,891.122 315,877.5C 313.833,875 312,873.167 309.5,872C 306.183,871.502 302.85,871.335 299.5,871.5C 299.5,887.167 299.5,902.833 299.5,918.5C 293.167,918.5 286.833,918.5 280.5,918.5C 280.5,879.833 280.5,841.167 280.5,802.5 Z M 299.5,819.5 C 312.753,817.419 318.419,823.086 316.5,836.5C 318.341,849.658 312.674,855.658 299.5,854.5C 299.5,842.833 299.5,831.167 299.5,819.5 Z"/></g>
<g style="filter: drop-shadow(0px 20px 8px rgba(0, 0, 0, 0.2));" ><path style="opacity:0.952" fill="#d15e04" d="M 359.5,802.5 C 369.263,801.876 378.763,802.543 388,804.5C 393.953,842.219 400.12,879.885 406.5,917.5C 399.866,918.497 393.2,918.83 386.5,918.5C 385.932,911.761 384.932,905.095 383.5,898.5C 376.532,897.503 369.532,897.17 362.5,897.5C 361.392,904.481 360.392,911.481 359.5,918.5C 353.5,918.5 347.5,918.5 341.5,918.5C 347.779,879.878 353.779,841.212 359.5,802.5 Z M 372.5,825.5 C 375.708,843.623 378.375,861.956 380.5,880.5C 375.156,880.666 369.823,880.499 364.5,880C 367.768,861.956 370.435,843.79 372.5,825.5 Z"/></g>
<g style="filter: drop-shadow(0px 20px 8px rgba(0, 0, 0, 0.2));" ><path style="opacity:0.96" fill="#d15e04" d="M 402.5,802.5 C 421.5,802.5 440.5,802.5 459.5,802.5C 459.5,808.167 459.5,813.833 459.5,819.5C 453.167,819.5 446.833,819.5 440.5,819.5C 440.5,852.5 440.5,885.5 440.5,918.5C 434.167,918.5 427.833,918.5 421.5,918.5C 421.5,885.5 421.5,852.5 421.5,819.5C 415.167,819.5 408.833,819.5 402.5,819.5C 402.5,813.833 402.5,808.167 402.5,802.5 Z"/></g>
<g style="filter: drop-shadow(0px 20px 8px rgba(0, 0, 0, 0.2));" ><path style="opacity:0.959" fill="#d15e04" d="M 531.5,802.5 C 544.171,802.333 556.838,802.5 569.5,803C 577.138,804.637 582.305,809.137 585,816.5C 586.562,826.439 586.895,836.439 586,846.5C 584.833,852.85 581.666,857.85 576.5,861.5C 581.666,865.15 584.833,870.15 586,876.5C 585.992,890.584 586.825,904.584 588.5,918.5C 581.91,918.811 575.41,918.478 569,917.5C 568.02,903.819 567.02,890.153 566,876.5C 561.868,871.952 556.701,870.285 550.5,871.5C 550.5,887.167 550.5,902.833 550.5,918.5C 544.167,918.5 537.833,918.5 531.5,918.5C 531.5,879.833 531.5,841.167 531.5,802.5 Z M 550.5,819.5 C 563.807,817.474 569.474,823.141 567.5,836.5C 569.345,849.654 563.679,855.654 550.5,854.5C 550.5,842.833 550.5,831.167 550.5,819.5 Z"/></g>
<g style="filter: drop-shadow(0px 20px 8px rgba(0, 0, 0, 0.2));" ><path style="opacity:0.97" fill="#d15e04" d="M 597.5,802.5 C 603.833,802.5 610.167,802.5 616.5,802.5C 616.5,841.167 616.5,879.833 616.5,918.5C 610.167,918.5 603.833,918.5 597.5,918.5C 597.5,879.833 597.5,841.167 597.5,802.5 Z"/></g>
<g style="filter: drop-shadow(0px 20px 8px rgba(0, 0, 0, 0.2));" ><path style="opacity:0.908" fill="#d15e04" d="M 581.5,930.5 C 584.187,930.336 586.854,930.503 589.5,931C 593.008,932.669 596.675,933.836 600.5,934.5C 603.608,934.208 606.108,932.875 608,930.5C 611.451,931.963 614.285,934.129 616.5,937C 613.624,945.772 607.624,949.438 598.5,948C 595,946.247 591.333,945.08 587.5,944.5C 584.189,944.31 581.689,945.644 580,948.5C 576.348,947.002 573.514,944.668 571.5,941.5C 572.81,935.862 576.144,932.195 581.5,930.5 Z"/></g>
<g style="filter: drop-shadow(0px 20px 8px rgba(0, 0, 0, 0.2));" ><path style="opacity:0.955" fill="#d15e04" d="M 389.5,952.5 C 395.509,952.334 401.509,952.501 407.5,953C 417.64,956.089 423.473,962.923 425,973.5C 425.5,980.158 425.666,986.825 425.5,993.5C 419.5,993.5 413.5,993.5 407.5,993.5C 407.877,986.743 407.377,980.076 406,973.5C 402.491,969.387 398.324,968.554 393.5,971C 391.513,972.319 390.346,974.152 390,976.5C 389.333,999.833 389.333,1023.17 390,1046.5C 391.82,1052.16 395.653,1054.33 401.5,1053C 403.286,1052.22 404.786,1051.05 406,1049.5C 407.401,1041.59 407.901,1033.59 407.5,1025.5C 413.5,1025.5 419.5,1025.5 425.5,1025.5C 425.666,1033.84 425.5,1042.17 425,1050.5C 421.891,1064.5 413.057,1071.5 398.5,1071.5C 383.391,1071.39 374.224,1064.05 371,1049.5C 370.333,1024.17 370.333,998.833 371,973.5C 373.045,962.671 379.212,955.671 389.5,952.5 Z"/></g>
<g style="filter: drop-shadow(0px 20px 8px rgba(0, 0, 0, 0.2));" ><path style="opacity:0.949" fill="#d15e04" d="M 519.5,952.5 C 525.509,952.334 531.509,952.501 537.5,953C 548.758,956.262 554.924,963.762 556,975.5C 556.499,981.491 556.666,987.491 556.5,993.5C 550.5,993.5 544.5,993.5 538.5,993.5C 539.055,986.296 538.222,979.296 536,972.5C 529.867,967.911 524.867,968.911 521,975.5C 520.333,999.5 520.333,1023.5 521,1047.5C 522.183,1051.74 525.016,1053.74 529.5,1053.5C 534.869,1052.96 537.702,1049.96 538,1044.5C 538.5,1038.18 538.666,1031.84 538.5,1025.5C 544.5,1025.5 550.5,1025.5 556.5,1025.5C 556.666,1032.84 556.5,1040.17 556,1047.5C 554.206,1061.46 546.373,1069.13 532.5,1070.5C 532.5,1072.17 532.5,1073.83 532.5,1075.5C 545.376,1075.63 548.376,1081.13 541.5,1092C 532.824,1095.2 524.157,1095.2 515.5,1092C 512.13,1089.3 510.796,1085.8 511.5,1081.5C 515.833,1081.5 520.167,1081.5 524.5,1081.5C 524.8,1085.98 526.967,1087.31 531,1085.5C 531.493,1080.18 528.993,1078.18 523.5,1079.5C 523.5,1076.5 523.5,1073.5 523.5,1070.5C 511.831,1069.33 504.665,1063 502,1051.5C 501.333,1024.83 501.333,998.167 502,971.5C 504.251,961.753 510.084,955.42 519.5,952.5 Z"/></g>
<g style="filter: drop-shadow(0px 20px 8px rgba(0, 0, 0, 0.2));" ><path style="opacity:0.956" fill="#d15e04" d="M 650.5,952.5 C 656.509,952.334 662.509,952.501 668.5,953C 678.658,955.158 684.824,961.324 687,971.5C 687.667,998.167 687.667,1024.83 687,1051.5C 682.843,1064.8 673.676,1071.46 659.5,1071.5C 643.142,1070.97 633.976,1062.64 632,1046.5C 631.058,1021.13 631.391,995.798 633,970.5C 635.683,961.318 641.517,955.318 650.5,952.5 Z M 656.5,969.5 C 661.852,968.758 665.686,970.758 668,975.5C 668.667,999.5 668.667,1023.5 668,1047.5C 665.163,1053.54 660.663,1055.04 654.5,1052C 652.396,1049.96 651.229,1047.46 651,1044.5C 650.333,1022.83 650.333,1001.17 651,979.5C 651.049,975.06 652.882,971.727 656.5,969.5 Z"/></g>
<g style="filter: drop-shadow(0px 20px 8px rgba(0, 0, 0, 0.2));" ><path style="opacity:0.959" fill="#d15e04" d="M 24.5,953.5 C 37.1711,953.333 49.8377,953.5 62.5,954C 73.108,956.275 79.2746,962.775 81,973.5C 81.6667,998.833 81.6667,1024.17 81,1049.5C 79.2746,1060.23 73.108,1066.73 62.5,1069C 49.8377,1069.5 37.1711,1069.67 24.5,1069.5C 24.5,1030.83 24.5,992.167 24.5,953.5 Z M 43.5,970.5 C 47.5138,970.334 51.5138,970.501 55.5,971C 57.8477,971.346 59.6811,972.513 61,974.5C 62.1373,986.766 62.6373,999.1 62.5,1011.5C 62.6373,1023.9 62.1373,1036.23 61,1048.5C 59.786,1050.05 58.286,1051.22 56.5,1052C 52.1794,1052.5 47.8461,1052.67 43.5,1052.5C 43.5,1025.17 43.5,997.833 43.5,970.5 Z"/></g>
<g style="filter: drop-shadow(0px 20px 8px rgba(0, 0, 0, 0.2));" ><path style="opacity:0.974" fill="#d15e04" d="M 92.5,953.5 C 109.167,953.5 125.833,953.5 142.5,953.5C 142.5,959.167 142.5,964.833 142.5,970.5C 132.167,970.5 121.833,970.5 111.5,970.5C 111.5,981.167 111.5,991.833 111.5,1002.5C 119.833,1002.5 128.167,1002.5 136.5,1002.5C 136.5,1008.17 136.5,1013.83 136.5,1019.5C 128.167,1019.5 119.833,1019.5 111.5,1019.5C 111.5,1030.5 111.5,1041.5 111.5,1052.5C 121.833,1052.5 132.167,1052.5 142.5,1052.5C 142.5,1058.17 142.5,1063.83 142.5,1069.5C 125.833,1069.5 109.167,1069.5 92.5,1069.5C 92.5,1030.83 92.5,992.167 92.5,953.5 Z"/></g>
<g style="filter: drop-shadow(0px 20px 8px rgba(0, 0, 0, 0.2));" ><path style="opacity:0.978" fill="#d15e04" d="M 178.5,953.5 C 195.167,953.5 211.833,953.5 228.5,953.5C 228.5,959.167 228.5,964.833 228.5,970.5C 218.167,970.5 207.833,970.5 197.5,970.5C 197.5,981.167 197.5,991.833 197.5,1002.5C 205.833,1002.5 214.167,1002.5 222.5,1002.5C 222.5,1008.17 222.5,1013.83 222.5,1019.5C 214.167,1019.5 205.833,1019.5 197.5,1019.5C 197.5,1030.5 197.5,1041.5 197.5,1052.5C 207.833,1052.5 218.167,1052.5 228.5,1052.5C 228.5,1058.17 228.5,1063.83 228.5,1069.5C 211.833,1069.5 195.167,1069.5 178.5,1069.5C 178.5,1030.83 178.5,992.167 178.5,953.5 Z"/></g>
<g style="filter: drop-shadow(0px 20px 8px rgba(0, 0, 0, 0.2));" ><path style="opacity:0.965" fill="#d15e04" d="M 239.5,953.5 C 251.838,953.333 264.171,953.5 276.5,954C 286.667,956.167 292.833,962.333 295,972.5C 295.667,998.5 295.667,1024.5 295,1050.5C 292.833,1060.67 286.667,1066.83 276.5,1069C 264.171,1069.5 251.838,1069.67 239.5,1069.5C 239.5,1030.83 239.5,992.167 239.5,953.5 Z M 258.5,970.5 C 263.699,970.014 268.699,970.681 273.5,972.5C 274.584,973.665 275.417,974.998 276,976.5C 276.667,999.833 276.667,1023.17 276,1046.5C 275.167,1049.33 273.333,1051.17 270.5,1052C 266.514,1052.5 262.514,1052.67 258.5,1052.5C 258.5,1025.17 258.5,997.833 258.5,970.5 Z"/></g>
<g style="filter: drop-shadow(0px 20px 8px rgba(0, 0, 0, 0.2));" ><path style="opacity:0.964" fill="#d15e04" d="M 305.5,953.5 C 311.833,953.5 318.167,953.5 324.5,953.5C 324.333,984.168 324.5,1014.84 325,1045.5C 327.059,1053.47 331.893,1055.64 339.5,1052C 340.46,1050.58 341.293,1049.08 342,1047.5C 342.5,1016.17 342.667,984.835 342.5,953.5C 348.5,953.5 354.5,953.5 360.5,953.5C 360.667,985.835 360.5,1018.17 360,1050.5C 356.888,1064.93 347.888,1071.93 333,1071.5C 319.908,1071.72 311.241,1065.72 307,1053.5C 305.535,1020.21 305.035,986.874 305.5,953.5 Z"/></g>
<g style="filter: drop-shadow(0px 20px 8px rgba(0, 0, 0, 0.2));" ><path style="opacity:0.959" fill="#d15e04" d="M 449.5,953.5 C 458.751,953.182 467.917,953.515 477,954.5C 483.169,992.846 489.336,1031.18 495.5,1069.5C 488.833,1069.5 482.167,1069.5 475.5,1069.5C 475.09,1062.55 474.09,1055.71 472.5,1049C 465.508,1048.5 458.508,1048.33 451.5,1048.5C 450.608,1055.52 449.608,1062.52 448.5,1069.5C 442.491,1069.67 436.491,1069.5 430.5,1069C 436.883,1030.53 443.217,992.032 449.5,953.5 Z M 461.5,978.5 C 464.95,995.963 467.95,1013.63 470.5,1031.5C 465.208,1032.49 459.875,1032.83 454.5,1032.5C 456.834,1014.5 459.167,996.498 461.5,978.5 Z"/></g>
<g style="filter: drop-shadow(0px 20px 8px rgba(0, 0, 0, 0.2));" ><path style="opacity:0.959" fill="#d15e04" d="M 579.5,953.5 C 588.833,953.5 598.167,953.5 607.5,953.5C 613.933,992.1 619.933,1030.77 625.5,1069.5C 619.167,1069.5 612.833,1069.5 606.5,1069.5C 605.593,1062.48 604.593,1055.48 603.5,1048.5C 596.468,1048.17 589.468,1048.5 582.5,1049.5C 581.128,1056.1 580.128,1062.77 579.5,1069.5C 573.5,1069.5 567.5,1069.5 561.5,1069.5C 567.717,1030.87 573.717,992.199 579.5,953.5 Z M 592.5,978.5 C 595.802,996.275 598.469,1014.27 600.5,1032.5C 595.125,1032.83 589.792,1032.49 584.5,1031.5C 587.49,1013.89 590.157,996.223 592.5,978.5 Z"/></g>
<g style="filter: drop-shadow(0px 20px 8px rgba(0, 0, 0, 0.2));" ><path style="opacity:0.953" fill="#d15e04" d="M 30.5,1115.5 C 40.2634,1114.88 49.7634,1115.54 59,1117.5C 65.3453,1157.4 71.8453,1197.24 78.5,1237C 71.5079,1237.5 64.5079,1237.67 57.5,1237.5C 57.0413,1230.42 56.0413,1223.42 54.5,1216.5C 47.1968,1215.5 39.8635,1215.17 32.5,1215.5C 31.2834,1222.8 30.2834,1230.13 29.5,1237.5C 23.1318,1237.83 16.7985,1237.5 10.5,1236.5C 17.0634,1196.12 23.73,1155.79 30.5,1115.5 Z M 42.5,1143.5 C 43.7251,1144.15 44.3917,1145.32 44.5,1147C 47.1071,1164.14 49.4405,1181.31 51.5,1198.5C 46.1667,1198.5 40.8333,1198.5 35.5,1198.5C 37.74,1180.15 40.0733,1161.82 42.5,1143.5 Z"/></g>
<g style="filter: drop-shadow(0px 20px 8px rgba(0, 0, 0, 0.2));" ><path style="opacity:0.956" fill="#d15e04" d="M 85.5,1115.5 C 92.1667,1115.5 98.8333,1115.5 105.5,1115.5C 105.5,1150.17 105.5,1184.83 105.5,1219.5C 115.833,1219.5 126.167,1219.5 136.5,1219.5C 136.5,1225.5 136.5,1231.5 136.5,1237.5C 119.5,1237.5 102.5,1237.5 85.5,1237.5C 85.5,1196.83 85.5,1156.17 85.5,1115.5 Z"/></g>
<g style="filter: drop-shadow(0px 20px 8px rgba(0, 0, 0, 0.2));" ><path style="opacity:0.953" fill="#d15e04" d="M 143.5,1115.5 C 150.167,1115.5 156.833,1115.5 163.5,1115.5C 163.5,1156.17 163.5,1196.83 163.5,1237.5C 156.833,1237.5 150.167,1237.5 143.5,1237.5C 143.5,1196.83 143.5,1156.17 143.5,1115.5 Z"/></g>
<g style="filter: drop-shadow(0px 20px 8px rgba(0, 0, 0, 0.2));" ><path style="opacity:0.945" fill="#d15e04" d="M 176.5,1115.5 C 185.751,1115.18 194.917,1115.52 204,1116.5C 208.225,1143.52 212.558,1170.52 217,1197.5C 221.708,1170.25 225.874,1142.92 229.5,1115.5C 238.833,1115.5 248.167,1115.5 257.5,1115.5C 257.5,1156.17 257.5,1196.83 257.5,1237.5C 251.167,1237.5 244.833,1237.5 238.5,1237.5C 238.667,1210.5 238.5,1183.5 238,1156.5C 233.745,1183.45 229.912,1210.45 226.5,1237.5C 219.91,1237.81 213.41,1237.48 207,1236.5C 203,1211.83 199,1187.17 195,1162.5C 194.5,1187.5 194.333,1212.5 194.5,1237.5C 188.5,1237.5 182.5,1237.5 176.5,1237.5C 176.5,1196.83 176.5,1156.17 176.5,1115.5 Z"/></g>
<g style="filter: drop-shadow(0px 20px 8px rgba(0, 0, 0, 0.2));" ><path style="opacity:0.951" fill="#d15e04" d="M 269.5,1115.5 C 287.167,1115.5 304.833,1115.5 322.5,1115.5C 322.5,1121.83 322.5,1128.17 322.5,1134.5C 311.5,1134.5 300.5,1134.5 289.5,1134.5C 289.5,1145.17 289.5,1155.83 289.5,1166.5C 298.167,1166.5 306.833,1166.5 315.5,1166.5C 315.5,1172.5 315.5,1178.5 315.5,1184.5C 306.833,1184.5 298.167,1184.5 289.5,1184.5C 289.5,1196.17 289.5,1207.83 289.5,1219.5C 300.5,1219.5 311.5,1219.5 322.5,1219.5C 322.5,1225.5 322.5,1231.5 322.5,1237.5C 304.833,1237.5 287.167,1237.5 269.5,1237.5C 269.5,1196.83 269.5,1156.17 269.5,1115.5 Z"/></g>
<g style="filter: drop-shadow(0px 20px 8px rgba(0, 0, 0, 0.2));" ><path style="opacity:0.962" fill="#d15e04" d="M 332.5,1115.5 C 340.86,1115.17 349.193,1115.5 357.5,1116.5C 363.969,1139.08 370.136,1161.74 376,1184.5C 376.5,1161.5 376.667,1138.5 376.5,1115.5C 382.167,1115.5 387.833,1115.5 393.5,1115.5C 393.5,1156.17 393.5,1196.83 393.5,1237.5C 386.382,1238.1 379.548,1237.44 373,1235.5C 365.823,1207.79 358.489,1180.12 351,1152.5C 350.5,1180.83 350.333,1209.16 350.5,1237.5C 344.5,1237.5 338.5,1237.5 332.5,1237.5C 332.5,1196.83 332.5,1156.17 332.5,1115.5 Z"/></g>
<g style="filter: drop-shadow(0px 20px 8px rgba(0, 0, 0, 0.2));" ><path style="opacity:0.942" fill="#d15e04" d="M 400.5,1115.5 C 420.5,1115.5 440.5,1115.5 460.5,1115.5C 460.5,1121.83 460.5,1128.17 460.5,1134.5C 453.833,1134.5 447.167,1134.5 440.5,1134.5C 440.5,1168.83 440.5,1203.17 440.5,1237.5C 433.833,1237.5 427.167,1237.5 420.5,1237.5C 420.5,1203.17 420.5,1168.83 420.5,1134.5C 413.833,1134.5 407.167,1134.5 400.5,1134.5C 400.5,1128.17 400.5,1121.83 400.5,1115.5 Z"/></g>
<g style="filter: drop-shadow(0px 20px 8px rgba(0, 0, 0, 0.2));" ><path style="opacity:0.953" fill="#d15e04" d="M 475.5,1115.5 C 485.167,1115.5 494.833,1115.5 504.5,1115.5C 510.833,1156.17 517.167,1196.83 523.5,1237.5C 516.833,1237.5 510.167,1237.5 503.5,1237.5C 502.314,1230.2 501.314,1222.86 500.5,1215.5C 492.833,1215.5 485.167,1215.5 477.5,1215.5C 476.965,1222.58 475.965,1229.58 474.5,1236.5C 468.537,1237.5 462.537,1237.83 456.5,1237.5C 462.647,1196.8 468.98,1156.14 475.5,1115.5 Z M 488.5,1140.5 C 491.856,1159.65 494.856,1178.98 497.5,1198.5C 491.833,1198.5 486.167,1198.5 480.5,1198.5C 483.447,1179.2 486.114,1159.87 488.5,1140.5 Z"/></g>
<g style="filter: drop-shadow(0px 20px 8px rgba(0, 0, 0, 0.2));" ><path style="opacity:0.957" fill="#d15e04" d="M 531.5,1115.5 C 544.879,1115.12 558.212,1115.62 571.5,1117C 579.138,1118.64 584.305,1123.14 587,1130.5C 588.573,1141.44 588.906,1152.44 588,1163.5C 586.579,1169.84 583.079,1174.68 577.5,1178C 583.327,1181.16 586.827,1185.99 588,1192.5C 589.166,1205.8 589.832,1219.13 590,1232.5C 590.273,1234.1 590.773,1235.6 591.5,1237C 584.508,1237.5 577.508,1237.67 570.5,1237.5C 569.726,1225.2 569.226,1212.87 569,1200.5C 567.832,1190.12 561.999,1186.12 551.5,1188.5C 551.5,1204.83 551.5,1221.17 551.5,1237.5C 544.833,1237.5 538.167,1237.5 531.5,1237.5C 531.5,1196.83 531.5,1156.17 531.5,1115.5 Z M 551.5,1134.5 C 565.441,1131.77 571.107,1137.44 568.5,1151.5C 571.3,1165.61 565.633,1171.95 551.5,1170.5C 551.5,1158.5 551.5,1146.5 551.5,1134.5 Z"/></g>
<g style="filter: drop-shadow(0px 20px 8px rgba(0, 0, 0, 0.2));" ><path style="opacity:0.951" fill="#d15e04" d="M 626.5,1115.5 C 644.167,1115.5 661.833,1115.5 679.5,1115.5C 679.5,1121.83 679.5,1128.17 679.5,1134.5C 668.5,1134.5 657.5,1134.5 646.5,1134.5C 646.5,1145.17 646.5,1155.83 646.5,1166.5C 655.167,1166.5 663.833,1166.5 672.5,1166.5C 672.5,1172.5 672.5,1178.5 672.5,1184.5C 663.833,1184.5 655.167,1184.5 646.5,1184.5C 646.5,1196.17 646.5,1207.83 646.5,1219.5C 657.5,1219.5 668.5,1219.5 679.5,1219.5C 679.5,1225.5 679.5,1231.5 679.5,1237.5C 661.833,1237.5 644.167,1237.5 626.5,1237.5C 626.5,1196.83 626.5,1156.17 626.5,1115.5 Z"/></g>
<g style="filter: drop-shadow(0px 20px 8px rgba(0, 0, 0, 0.2));" ><path style="opacity:0.955" fill="#d15e04" d="M 349.5,1287.5 C 360.888,1285.8 370.722,1288.8 379,1296.5C 381.225,1300.28 382.891,1304.28 384,1308.5C 384.5,1315.83 384.666,1323.16 384.5,1330.5C 378.5,1330.5 372.5,1330.5 366.5,1330.5C 366.774,1323.77 366.274,1317.1 365,1310.5C 358.926,1303.71 353.259,1304.05 348,1311.5C 347.333,1336.5 347.333,1361.5 348,1386.5C 350.354,1392.09 354.521,1393.93 360.5,1392C 364.247,1390.01 366.081,1386.85 366,1382.5C 366.499,1376.51 366.666,1370.51 366.5,1364.5C 372.5,1364.5 378.5,1364.5 384.5,1364.5C 384.891,1374.23 384.391,1383.9 383,1393.5C 380.071,1402.1 374.237,1407.6 365.5,1410C 359.167,1410.67 352.833,1410.67 346.5,1410C 335.242,1406.74 329.076,1399.24 328,1387.5C 327.333,1361.83 327.333,1336.17 328,1310.5C 329.905,1297.77 337.072,1290.1 349.5,1287.5 Z"/></g>
<g style="filter: drop-shadow(0px 20px 8px rgba(0, 0, 0, 0.2));" ><path style="opacity:0.95" fill="#d15e04" d="M 448.5,1287.5 C 457.303,1286.55 465.636,1288.05 473.5,1292C 479.558,1296.72 483.058,1302.89 484,1310.5C 484.965,1337.88 484.632,1365.22 483,1392.5C 478.421,1405.22 469.254,1411.55 455.5,1411.5C 439.531,1411.69 430.031,1404.02 427,1388.5C 426.333,1362.17 426.333,1335.83 427,1309.5C 429.681,1297.65 436.848,1290.32 448.5,1287.5 Z M 452.5,1305.5 C 457.814,1304.74 461.647,1306.74 464,1311.5C 464.667,1336.5 464.667,1361.5 464,1386.5C 462.877,1390.82 460.044,1392.82 455.5,1392.5C 451.497,1392.75 448.664,1391.08 447,1387.5C 446.333,1362.17 446.333,1336.83 447,1311.5C 448.36,1308.98 450.193,1306.98 452.5,1305.5 Z"/></g>
<g style="filter: drop-shadow(0px 20px 8px rgba(0, 0, 0, 0.2));" ><path style="opacity:0.974" fill="#d15e04" d="M 25.5,1288.5 C 33.5277,1288.17 41.5277,1288.5 49.5,1289.5C 55.8212,1312.45 61.9878,1335.45 68,1358.5C 68.5,1335.17 68.6666,1311.84 68.5,1288.5C 74.1667,1288.5 79.8333,1288.5 85.5,1288.5C 85.5,1328.83 85.5,1369.17 85.5,1409.5C 78.5778,1409.81 71.7445,1409.48 65,1408.5C 57.8225,1380.79 50.4892,1353.12 43,1325.5C 42.5,1353.5 42.3334,1381.5 42.5,1409.5C 36.8333,1409.5 31.1667,1409.5 25.5,1409.5C 25.5,1369.17 25.5,1328.83 25.5,1288.5 Z"/></g>
<g style="filter: drop-shadow(0px 20px 8px rgba(0, 0, 0, 0.2));" ><path style="opacity:0.943" fill="#d15e04" d="M 97.5,1288.5 C 104.167,1288.5 110.833,1288.5 117.5,1288.5C 117.333,1321.5 117.5,1354.5 118,1387.5C 119.8,1391.24 122.8,1392.9 127,1392.5C 130.934,1392.9 133.601,1391.24 135,1387.5C 135.5,1354.5 135.667,1321.5 135.5,1288.5C 141.833,1288.5 148.167,1288.5 154.5,1288.5C 154.667,1322.17 154.5,1355.83 154,1389.5C 150.573,1404.25 141.239,1411.59 126,1411.5C 112.575,1411.96 103.575,1405.96 99,1393.5C 97.5336,1358.54 97.0336,1323.54 97.5,1288.5 Z"/></g>
<g style="filter: drop-shadow(0px 20px 8px rgba(0, 0, 0, 0.2));" ><path style="opacity:0.952" fill="#d15e04" d="M 161.5,1288.5 C 181.167,1288.5 200.833,1288.5 220.5,1288.5C 220.5,1294.5 220.5,1300.5 220.5,1306.5C 213.833,1306.5 207.167,1306.5 200.5,1306.5C 200.5,1340.83 200.5,1375.17 200.5,1409.5C 193.833,1409.5 187.167,1409.5 180.5,1409.5C 180.5,1375.17 180.5,1340.83 180.5,1306.5C 174.167,1306.5 167.833,1306.5 161.5,1306.5C 161.5,1300.5 161.5,1294.5 161.5,1288.5 Z"/></g>
<g style="filter: drop-shadow(0px 20px 8px rgba(0, 0, 0, 0.2));" ><path style="opacity:0.946" fill="#d15e04" d="M 227.5,1288.5 C 241.212,1288.12 254.879,1288.62 268.5,1290C 275.181,1292.01 280.014,1296.18 283,1302.5C 285.829,1313.76 286.162,1325.09 284,1336.5C 282.576,1342.35 279.409,1347.01 274.5,1350.5C 279.403,1353.57 282.57,1357.9 284,1363.5C 285.218,1377.13 285.885,1390.79 286,1404.5C 286.402,1405.87 286.902,1407.21 287.5,1408.5C 280.532,1409.5 273.532,1409.83 266.5,1409.5C 266.038,1395.12 265.204,1380.78 264,1366.5C 263.167,1364.33 261.667,1362.83 259.5,1362C 255.582,1360.84 251.582,1360.34 247.5,1360.5C 247.5,1376.83 247.5,1393.17 247.5,1409.5C 240.833,1409.5 234.167,1409.5 227.5,1409.5C 227.5,1369.17 227.5,1328.83 227.5,1288.5 Z M 247.5,1306.5 C 252.742,1306.02 257.742,1306.86 262.5,1309C 264.974,1313.82 265.974,1318.99 265.5,1324.5C 267.752,1338.91 261.752,1344.91 247.5,1342.5C 247.5,1330.5 247.5,1318.5 247.5,1306.5 Z"/></g>
<g style="filter: drop-shadow(0px 20px 8px rgba(0, 0, 0, 0.2));" ><path style="opacity:0.942" fill="#d15e04" d="M 296.5,1288.5 C 303.167,1288.5 309.833,1288.5 316.5,1288.5C 316.5,1328.83 316.5,1369.17 316.5,1409.5C 309.833,1409.5 303.167,1409.5 296.5,1409.5C 296.5,1369.17 296.5,1328.83 296.5,1288.5 Z"/></g>
<g style="filter: drop-shadow(0px 20px 8px rgba(0, 0, 0, 0.2));" ><path style="opacity:0.942" fill="#d15e04" d="M 395.5,1288.5 C 402.167,1288.5 408.833,1288.5 415.5,1288.5C 415.5,1328.83 415.5,1369.17 415.5,1409.5C 408.833,1409.5 402.167,1409.5 395.5,1409.5C 395.5,1369.17 395.5,1328.83 395.5,1288.5 Z"/></g>
<g style="filter: drop-shadow(0px 20px 8px rgba(0, 0, 0, 0.2));" ><path style="opacity:0.95" fill="#d15e04" d="M 495.5,1288.5 C 503.833,1288.5 512.167,1288.5 520.5,1288.5C 526.173,1310.86 532.006,1333.19 538,1355.5C 538.5,1333.17 538.667,1310.84 538.5,1288.5C 544.5,1288.5 550.5,1288.5 556.5,1288.5C 556.5,1328.83 556.5,1369.17 556.5,1409.5C 549.5,1409.5 542.5,1409.5 535.5,1409.5C 528.807,1381.73 521.641,1354.06 514,1326.5C 513.5,1354.16 513.333,1381.83 513.5,1409.5C 507.5,1409.5 501.5,1409.5 495.5,1409.5C 495.5,1369.17 495.5,1328.83 495.5,1288.5 Z"/></g>
<g style="filter: drop-shadow(0px 20px 8px rgba(0, 0, 0, 0.2));" ><path style="opacity:0.954" fill="#d15e04" d="M 583.5,1288.5 C 593.167,1288.5 602.833,1288.5 612.5,1288.5C 618.184,1328.61 624.518,1368.61 631.5,1408.5C 624.858,1409.66 618.192,1409.83 611.5,1409C 610.074,1402.02 608.74,1395.02 607.5,1388C 600.174,1387.5 592.841,1387.33 585.5,1387.5C 584.717,1394.87 583.717,1402.2 582.5,1409.5C 576.5,1409.5 570.5,1409.5 564.5,1409.5C 570.509,1369.11 576.842,1328.78 583.5,1288.5 Z M 596.5,1315.5 C 599.535,1333.56 602.535,1351.73 605.5,1370C 599.843,1370.5 594.176,1370.67 588.5,1370.5C 590.981,1352.14 593.647,1333.8 596.5,1315.5 Z"/></g>
<g style="filter: drop-shadow(0px 20px 8px rgba(0, 0, 0, 0.2));" ><path style="opacity:0.949" fill="#d15e04" d="M 638.5,1288.5 C 645.167,1288.5 651.833,1288.5 658.5,1288.5C 658.5,1322.83 658.5,1357.17 658.5,1391.5C 668.833,1391.5 679.167,1391.5 689.5,1391.5C 689.5,1397.5 689.5,1403.5 689.5,1409.5C 672.5,1409.5 655.5,1409.5 638.5,1409.5C 638.5,1369.17 638.5,1328.83 638.5,1288.5 Z"/></g>
</svg>