<?xml version="1.0" encoding="UTF-8"?>
<!DOCTYPE svg PUBLIC "-//W3C//DTD SVG 1.1//EN" "http://www.w3.org/Graphics/SVG/1.1/DTD/svg11.dtd">
<svg xmlns="http://www.w3.org/2000/svg" version="1.1" width="1160px" height="1645px" style="shape-rendering:geometricPrecision; text-rendering:geometricPrecision; image-rendering:optimizeQuality; fill-rule:evenodd; clip-rule:evenodd" xmlns:xlink="http://www.w3.org/1999/xlink">
<g><path style="opacity:0.988" fill="#fefefe" d="M 567.5,-0.5 C 571.5,-0.5 575.5,-0.5 579.5,-0.5C 591.374,3.21109 598.541,11.2111 601,23.5C 600.737,33.1856 602.404,42.519 606,51.5C 616.131,70.0929 628.464,87.0929 643,102.5C 674.16,141.315 681.493,184.315 665,231.5C 661.206,243.279 654.373,252.779 644.5,260C 639.867,276.606 631.867,291.272 620.5,304C 631.667,304.648 642.667,306.314 653.5,309C 675.198,317.372 685.698,333.205 685,356.5C 684.531,361.209 683.365,365.709 681.5,370C 693.359,378.878 700.192,390.711 702,405.5C 705.893,396.94 711.893,390.273 720,385.5C 718.558,356.256 732.391,339.422 761.5,335C 771.91,334.947 782.243,335.281 792.5,336C 776.83,320.338 762.663,303.505 750,285.5C 726.568,245.382 725.568,204.715 747,163.5C 748.907,159.59 751.573,156.256 755,153.5C 761.148,113.046 777.648,77.5461 804.5,47C 819.302,37.2372 832.802,38.7372 845,51.5C 847.637,55.0716 849.303,59.0716 850,63.5C 849.851,82.7208 855.851,99.7208 868,114.5C 879,128.167 890,141.833 901,155.5C 924.733,192.618 929.067,231.951 914,273.5C 910.922,279.991 907.588,286.325 904,292.5C 901.278,295.444 898.111,297.777 894.5,299.5C 890.221,315.059 883.055,329.059 873,341.5C 870.795,344.04 868.295,346.207 865.5,348C 875.574,350.703 884.907,355.037 893.5,361C 909.676,376.215 913.343,394.048 904.5,414.5C 918.992,433.713 919.158,453.047 905,472.5C 903.127,474.709 900.96,476.542 898.5,478C 907.923,480.356 917.256,483.022 926.5,486C 940.421,492.926 948.588,504.093 951,519.5C 951.667,739.5 951.667,959.5 951,1179.5C 950.194,1193.25 948.694,1206.92 946.5,1220.5C 1008.24,1205.65 1066.58,1182.48 1121.5,1151C 1140.83,1147.85 1152.83,1155.69 1157.5,1174.5C 1157.5,1176.5 1157.5,1178.5 1157.5,1180.5C 1148.92,1227.29 1140.76,1274.29 1133,1321.5C 1132.37,1331.69 1129.37,1341.02 1124,1349.5C 1105.92,1369.26 1085.25,1385.59 1062,1398.5C 1061.57,1478.1 1028.07,1538.93 961.5,1581C 922.851,1603.67 881.517,1619.67 837.5,1629C 775.819,1641.58 713.486,1647.91 650.5,1648C 578.131,1649.27 505.798,1648.27 433.5,1645C 366.522,1641.42 301.855,1627.42 239.5,1603C 197.551,1586.29 162.384,1560.45 134,1525.5C 117.919,1504 107.252,1480 102,1453.5C 99.6568,1434.75 96.9901,1416.08 94,1397.5C 70.746,1384.59 50.0793,1368.26 32,1348.5C 30.4138,1346.33 29.0804,1344 28,1341.5C 18.3727,1288.06 8.87274,1234.73 -0.5,1181.5C -0.5,1178.83 -0.5,1176.17 -0.5,1173.5C 4.61522,1155.25 16.6152,1147.75 35.5,1151C 79.724,1176.44 126.391,1196.44 175.5,1211C 186.551,1214.01 197.551,1217.18 208.5,1220.5C 208.833,1219.67 209.167,1218.83 209.5,1218C 207.123,1205.94 205.623,1193.78 205,1181.5C 204.333,960.5 204.333,739.5 205,518.5C 207.244,503.171 215.41,492.338 229.5,486C 238.895,483.32 248.228,480.653 257.5,478C 237.467,458.418 235.467,437.085 251.5,414C 242.307,390.42 247.973,371.42 268.5,357C 279.09,352.137 290.09,348.47 301.5,346C 290.784,331.611 278.951,318.111 266,305.5C 228.627,260.21 223.627,211.544 251,159.5C 252.309,157.024 254.142,155.024 256.5,153.5C 263.189,112.628 280.189,76.7944 307.5,46C 323.209,37.0761 336.709,39.5761 348,53.5C 351.599,61.7565 353.266,70.4232 353,79.5C 355.654,92.1396 360.988,103.473 369,113.5C 378.76,126.017 388.76,138.35 399,150.5C 425.785,188.105 431.452,228.772 416,272.5C 412.317,284.222 405.484,293.555 395.5,300.5C 392.182,312.967 386.849,324.467 379.5,335C 416.911,331.914 436.244,349.081 437.5,386.5C 445.72,391.55 451.554,398.55 455,407.5C 455.854,391.956 462.354,379.456 474.5,370C 466.368,339.597 477.034,318.931 506.5,308C 520.695,305.214 535.029,303.547 549.5,303C 537.372,288.536 524.872,274.37 512,260.5C 477.623,215.766 473.623,168.433 500,118.5C 501.626,115.872 503.626,113.539 506,111.5C 512.52,70.966 529.353,35.466 556.5,5C 560.017,2.6738 563.683,0.840466 567.5,-0.5 Z M 457.5,424.5 C 461.69,433.341 467.69,440.841 475.5,447C 466.912,447.48 458.412,448.313 450,449.5C 452.452,445.238 454.452,440.571 456,435.5C 457.108,431.914 457.608,428.247 457.5,424.5 Z M 697.5,425.5 C 699.008,433.509 702.008,441.009 706.5,448C 698.226,447.594 689.893,446.927 681.5,446C 689.341,441.007 694.674,434.174 697.5,425.5 Z"/></g>
<g><path style="opacity:1" fill="#ff0902" d="M 634.5,231.5 C 633.833,226.833 633.167,222.167 632.5,217.5C 631.794,207.545 628.96,198.212 624,189.5C 613.871,174.257 602.538,159.924 590,146.5C 577.877,132.253 570.044,115.92 566.5,97.5C 566.631,96.6236 566.298,95.9569 565.5,95.5C 564.183,101.654 564.183,107.654 565.5,113.5C 566.603,129.31 571.77,143.643 581,156.5C 590.048,167.213 598.714,178.213 607,189.5C 624.168,217.16 624.834,245.16 609,273.5C 606.814,277.198 604.147,280.532 601,283.5C 603.461,272.323 602.461,261.323 598,250.5C 594.841,243.512 591.174,236.846 587,230.5C 573.948,213.782 561.281,196.782 549,179.5C 530.899,146.445 528.899,112.445 543,77.5C 550.988,59.5072 560.988,42.8405 573,27.5C 574.683,51.5179 583.017,72.8512 598,91.5C 608.24,103.65 618.24,115.983 628,128.5C 649.895,161.577 652.062,195.91 634.5,231.5 Z"/></g>
<g><path style="opacity:1" fill="#fe0802" d="M 323.5,68.5 C 325.642,90.823 333.475,111.156 347,129.5C 360.767,145.931 373.767,162.931 386,180.5C 401.547,211.659 401.214,242.659 385,273.5C 385.48,261.382 383.48,249.716 379,238.5C 369.013,219.536 356.346,202.536 341,187.5C 328.444,172.717 320.444,155.717 317,136.5C 314.13,160.695 320.13,182.362 335,201.5C 348.06,214.62 358.394,229.62 366,246.5C 376.216,275.175 371.716,301.175 352.5,324.5C 355.113,311.499 353.28,298.833 347,286.5C 335.162,267.662 322.162,249.662 308,232.5C 278.987,189.649 277.321,145.649 303,100.5C 309.605,89.6072 316.438,78.9405 323.5,68.5 Z"/></g>
<g><path style="opacity:1" fill="#ff0902" d="M 815.5,139.5 C 815.631,138.624 815.298,137.957 814.5,137.5C 813.185,142.986 813.185,148.32 814.5,153.5C 815.601,172.308 822.101,188.975 834,203.5C 846.979,216.12 856.979,230.787 864,247.5C 874.12,275.895 869.454,301.562 850,324.5C 850.324,319.897 850.824,315.231 851.5,310.5C 849.575,295.655 844.075,282.321 835,270.5C 821.228,253.396 808.228,235.729 796,217.5C 776.939,178.168 778.272,139.502 800,101.5C 806.589,89.9839 813.922,78.9839 822,68.5C 823.573,93.8964 832.573,116.23 849,135.5C 858,146.5 867,157.5 876,168.5C 893.702,193.326 899.035,220.659 892,250.5C 889.771,258.959 886.437,266.959 882,274.5C 882.486,262.484 880.82,250.817 877,239.5C 873.759,232.011 869.759,225.011 865,218.5C 852.522,204.201 840.522,189.534 829,174.5C 822.036,163.772 817.536,152.106 815.5,139.5 Z"/></g>
<g><path style="opacity:1" fill="#fc7555" d="M 566.5,97.5 C 565.512,102.64 565.179,107.974 565.5,113.5C 564.183,107.654 564.183,101.654 565.5,95.5C 566.298,95.9569 566.631,96.6236 566.5,97.5 Z"/></g>
<g><path style="opacity:1" fill="#ffb307" d="M 522.5,134.5 C 523.167,139.167 523.833,143.833 524.5,148.5C 524.849,161.715 528.349,174.048 535,185.5C 546.802,203.974 560.135,221.307 575,237.5C 593.838,261.025 596.504,286.358 583,313.5C 581.679,303.535 578.012,294.535 572,286.5C 568.425,282.347 565.091,278.014 562,273.5C 551.298,262.466 540.964,251.133 531,239.5C 507.018,206.18 504.185,171.18 522.5,134.5 Z"/></g>
<g><path style="opacity:1" fill="#fee8ad" d="M 522.5,134.5 C 522.56,133.957 522.893,133.624 523.5,133.5C 524.494,138.456 524.827,143.456 524.5,148.5C 523.833,143.833 523.167,139.167 522.5,134.5 Z"/></g>
<g><path style="opacity:1" fill="#fdaf93" d="M 815.5,139.5 C 814.514,143.97 814.181,148.637 814.5,153.5C 813.185,148.32 813.185,142.986 814.5,137.5C 815.298,137.957 815.631,138.624 815.5,139.5 Z"/></g>
<g><path style="opacity:1" fill="#fed672" d="M 275.5,190.5 C 274.833,185.833 274.167,181.167 273.5,176.5C 273.783,175.711 274.283,175.044 275,174.5C 275.499,179.823 275.666,185.156 275.5,190.5 Z"/></g>
<g><path style="opacity:1" fill="#ffb307" d="M 771.5,175.5 C 771.143,195.065 775.976,213.398 786,230.5C 797.854,248.026 810.854,264.692 825,280.5C 842.64,303.64 844.974,328.306 832,354.5C 830.611,345.389 827.278,337.055 822,329.5C 817.333,323.5 812.667,317.5 808,311.5C 797.964,301.132 788.297,290.466 779,279.5C 755.865,246.319 753.365,211.652 771.5,175.5 Z"/></g>
<g><path style="opacity:1" fill="#ffb307" d="M 273.5,176.5 C 274.167,181.167 274.833,185.833 275.5,190.5C 276.324,202.474 279.49,213.807 285,224.5C 289.751,232.337 294.751,240.004 300,247.5C 310.712,259.876 321.045,272.543 331,285.5C 345.253,307.896 346.253,330.896 334,354.5C 332.411,343.321 328.078,333.321 321,324.5C 311.6,312.409 301.267,301.076 290,290.5C 272.39,271.104 262.89,248.271 261.5,222C 261.831,205.842 265.831,190.675 273.5,176.5 Z"/></g>
<g><path style="opacity:1" fill="#fda689" d="M 632.5,217.5 C 633.167,222.167 633.833,226.833 634.5,231.5C 634.217,232.289 633.717,232.956 633,233.5C 632.501,228.177 632.334,222.844 632.5,217.5 Z"/></g>
<g><path style="opacity:1" fill="#ffb206" d="M 545.5,329.5 C 575.583,328.759 605.583,329.926 635.5,333C 652.316,334.452 659.149,343.285 656,359.5C 654.374,362.128 652.374,364.461 650,366.5C 649.125,367.873 648.625,369.373 648.5,371C 650.602,375.129 652.769,379.296 655,383.5C 655.495,385.473 655.662,387.473 655.5,389.5C 669.366,391.547 675.2,399.547 673,413.5C 669.611,422.448 663.111,426.781 653.5,426.5C 651.331,438.659 643.997,444.659 631.5,444.5C 593.164,443.391 554.83,443.224 516.5,444C 508.293,440.963 503.626,435.13 502.5,426.5C 495.008,426.837 489.175,423.837 485,417.5C 480.002,406.161 482.835,397.328 493.5,391C 495.74,390.023 498.073,389.523 500.5,389.5C 500.48,383.542 502.646,378.542 507,374.5C 507.667,372.167 507.667,369.833 507,367.5C 493.99,353.418 496.157,342.251 513.5,334C 524.252,332.087 534.919,330.587 545.5,329.5 Z"/></g>
<g><path style="opacity:1" fill="#fffcf5" d="M 553.5,347.5 C 578.874,347.179 604.207,348.013 629.5,350C 631.648,352.075 631.982,354.408 630.5,357C 626.5,357.167 622.5,357.333 618.5,357.5C 587.832,356.462 557.166,356.295 526.5,357C 523.828,354.321 524.162,351.988 527.5,350C 536.309,349.078 544.976,348.245 553.5,347.5 Z"/></g>
<g><path style="opacity:1" fill="#ffb308" d="M 377.5,361.5 C 383.176,361.334 388.843,361.501 394.5,362C 409.85,366.194 413.35,375.027 405,388.5C 404.333,390.5 404.333,392.5 405,394.5C 409.292,397.425 411.792,401.425 412.5,406.5C 428.377,408.26 433.544,416.593 428,431.5C 424.898,435.8 420.731,438.133 415.5,438.5C 416.08,447.428 412.08,453.261 403.5,456C 370.121,459.876 336.954,465.043 304,471.5C 296.597,470.773 291.43,466.94 288.5,460C 275.403,459.24 268.903,452.407 269,439.5C 270.967,433.699 274.801,429.699 280.5,427.5C 281.452,422.097 283.119,416.93 285.5,412C 283.478,407.964 280.644,404.464 277,401.5C 273.385,392.573 275.552,385.406 283.5,380C 298.101,374.599 313.101,370.599 328.5,368C 344.904,365.242 361.238,363.076 377.5,361.5 Z"/></g>
<g><path style="opacity:1" fill="#ffb308" d="M 760.5,361.5 C 794.766,362.214 828.432,367.048 861.5,376C 870.404,377.189 876.904,381.689 881,389.5C 882.518,397.98 879.518,404.313 872,408.5C 871.362,409.609 870.862,410.775 870.5,412C 873.459,416.751 875.126,421.918 875.5,427.5C 889.073,434.597 891.073,444.097 881.5,456C 877.039,458.116 872.373,459.616 867.5,460.5C 864.612,467.618 859.279,471.285 851.5,471.5C 818.68,465.236 785.68,460.07 752.5,456C 743.984,453.309 739.984,447.476 740.5,438.5C 729.9,436.655 725.067,430.322 726,419.5C 728.995,411.343 734.828,406.676 743.5,405.5C 745.038,401.46 747.538,398.126 751,395.5C 751.781,394.271 752.281,392.938 752.5,391.5C 742.424,377.977 745.09,367.977 760.5,361.5 Z"/></g>
<g><path style="opacity:1" fill="#fffdf8" d="M 369.5,380.5 C 374.511,380.334 379.511,380.501 384.5,381C 385.935,383.267 385.602,385.267 383.5,387C 356.439,388.677 329.773,392.843 303.5,399.5C 302.558,399.392 301.725,399.059 301,398.5C 299.643,394.857 300.81,392.69 304.5,392C 326.115,387.066 347.781,383.232 369.5,380.5 Z"/></g>
<g><path style="opacity:1" fill="#fffdf8" d="M 774.5,380.5 C 802.514,382.269 830.181,386.436 857.5,393C 858.576,394.726 858.743,396.559 858,398.5C 857.107,399.081 856.107,399.415 855,399.5C 828.862,393.17 802.362,389.003 775.5,387C 773.316,385.102 772.983,382.936 774.5,380.5 Z"/></g>
<g><path style="opacity:1" fill="#fffdfa" d="M 530.5,400.5 C 560.835,400.333 591.168,400.5 621.5,401C 629.209,401.238 636.876,401.904 644.5,403C 646.059,405.642 645.725,407.975 643.5,410C 641,410.167 638.5,410.333 636,410.5C 596.667,407.853 557.333,407.853 518,410.5C 510.198,410.722 508.698,407.889 513.5,402C 519.348,401.827 525.015,401.327 530.5,400.5 Z"/></g>
<g><path style="opacity:1" fill="#fffdf8" d="M 391.5,420.5 C 395.182,420.335 398.848,420.501 402.5,421C 403.833,423 403.833,425 402.5,427C 367.405,429.853 332.738,435.353 298.5,443.5C 297.558,443.392 296.725,443.059 296,442.5C 295.333,440.833 295.333,439.167 296,437.5C 327.571,429.823 359.404,424.156 391.5,420.5 Z"/></g>
<g><path style="opacity:1" fill="#fffdf8" d="M 756.5,420.5 C 792.256,423.22 827.589,428.72 862.5,437C 863.576,438.726 863.743,440.559 863,442.5C 862.107,443.081 861.107,443.415 860,443.5C 825.919,435.459 791.419,429.959 756.5,427C 755.232,424.837 755.232,422.67 756.5,420.5 Z"/></g>
<g><path style="opacity:1" fill="#11218b" d="M 555.5,469.5 C 662.996,467.844 769.329,478.011 874.5,500C 888.226,503.515 901.893,507.181 915.5,511C 919.058,512.892 921.558,515.725 923,519.5C 923.667,740.833 923.667,962.167 923,1183.5C 913.771,1269.83 871.938,1335 797.5,1379C 757.641,1401.4 714.975,1415.4 669.5,1421C 605.451,1428.64 541.451,1428.31 477.5,1420C 404.854,1409.76 343.354,1378.26 293,1325.5C 256.788,1284.05 236.788,1235.72 233,1180.5C 232.333,960.167 232.333,739.833 233,519.5C 234.833,515 238,511.833 242.5,510C 321.354,490.565 401.354,478.232 482.5,473C 506.979,471.533 531.312,470.367 555.5,469.5 Z"/></g>
<g><path style="opacity:1" fill="#fefefe" d="M 537.5,497.5 C 658.496,493.997 777.83,505.997 895.5,533.5C 895.5,583.167 895.5,632.833 895.5,682.5C 877.485,676.579 859.151,671.746 840.5,668C 834.531,663.033 828.865,657.699 823.5,652C 816.965,648.442 810.631,648.775 804.5,653C 800.102,656.394 795.435,659.394 790.5,662C 759.534,661.704 728.867,664.538 698.5,670.5C 686.213,668.79 673.879,668.29 661.5,669C 656.787,670.19 652.453,672.19 648.5,675C 640.136,683.03 632.136,691.363 624.5,700C 601.172,712.242 579.672,727.075 560,744.5C 553.333,735.167 546.667,725.833 540,716.5C 535.523,711.347 530.023,707.847 523.5,706C 502.103,702.609 487.269,710.776 479,730.5C 477.31,742.462 480.31,753.128 488,762.5C 496.359,773.359 504.526,784.359 512.5,795.5C 509.839,799.858 506.505,803.525 502.5,806.5C 497.112,803.754 491.445,802.587 485.5,803C 484.874,803.75 484.374,804.584 484,805.5C 483.667,810.5 483.333,815.5 483,820.5C 480.333,824.5 477.667,824.5 475,820.5C 404.049,727.881 332.716,635.548 261,543.5C 260.502,540.183 260.335,536.85 260.5,533.5C 351.933,513.696 444.266,501.696 537.5,497.5 Z"/></g>
<g><path style="opacity:1" fill="#fdfcfd" d="M 508.5,721.5 C 512.514,721.334 516.514,721.501 520.5,722C 523.102,722.883 525.269,724.383 527,726.5C 544.946,752.113 563.28,777.446 582,802.5C 585.159,816.875 579.325,825.208 564.5,827.5C 560.387,827.111 556.72,825.611 553.5,823C 534.667,797.5 515.833,772 497,746.5C 494.844,742.738 494.177,738.738 495,734.5C 498.101,728.563 502.601,724.23 508.5,721.5 Z"/></g>
<g><path style="opacity:1" fill="#fdfcfd" d="M 376.5,813.5 C 383.251,812.295 389.085,813.962 394,818.5C 411.946,844.113 430.28,869.446 449,894.5C 452.136,908.892 446.303,917.226 431.5,919.5C 427.387,919.111 423.72,917.611 420.5,915C 401.667,889.5 382.833,864 364,838.5C 359.64,825.886 363.807,817.553 376.5,813.5 Z"/></g>
<g><path style="opacity:1" fill="#fefefe" d="M 458.5,823.5 C 465.621,824.793 472.621,825.793 479.5,826.5C 548.142,915.643 616.975,1004.64 686,1093.5C 687.879,1095.53 689.046,1097.86 689.5,1100.5C 683.225,1099.24 676.891,1098.74 670.5,1099C 668.972,1100.65 668.305,1102.65 668.5,1105C 669.239,1108.83 669.406,1112.66 669,1116.5C 668.167,1117.33 667.333,1118.17 666.5,1119C 662.044,1120.54 657.711,1122.37 653.5,1124.5C 643.14,1110.64 632.973,1096.64 623,1082.5C 613.609,1071.52 601.775,1067.69 587.5,1071C 564.572,1079.02 556.738,1094.52 564,1117.5C 573.306,1130.97 582.806,1144.31 592.5,1157.5C 572.031,1171.63 553.365,1187.96 536.5,1206.5C 527.711,1210.39 519.045,1214.56 510.5,1219C 503.935,1223.62 499.435,1229.78 497,1237.5C 495.115,1247.46 493.448,1257.46 492,1267.5C 479.204,1290.76 468.87,1315.1 461,1340.5C 453.177,1348.65 446.51,1357.65 441,1367.5C 439.675,1372.4 439.175,1377.4 439.5,1382.5C 382.564,1367.46 336.064,1336.8 300,1290.5C 277.342,1258.87 264.342,1223.54 261,1184.5C 260.333,1134.17 260.333,1083.83 261,1033.5C 266.258,1019.65 272.591,1006.32 280,993.5C 281.448,983.474 283.115,973.474 285,963.5C 287.141,955.022 291.975,948.522 299.5,944C 307.712,939.727 316.045,935.727 324.5,932C 340.645,915.18 357.979,899.847 376.5,886C 377.996,885.493 379.163,885.993 380,887.5C 388.667,899.5 397.333,911.5 406,923.5C 419.936,937.401 435.436,939.234 452.5,929C 469.185,915.313 471.685,899.479 460,881.5C 452.588,871.676 445.421,861.676 438.5,851.5C 444.888,848.889 451.055,845.889 457,842.5C 457.499,838.486 457.333,834.486 456.5,830.5C 456.442,827.922 457.109,825.589 458.5,823.5 Z"/></g>
<g><path style="opacity:1" fill="#fefefe" d="M 875.5,943.5 C 882.167,943.5 888.833,943.5 895.5,943.5C 895.667,1022.17 895.5,1100.83 895,1179.5C 892.655,1216.87 881.321,1251.2 861,1282.5C 856.876,1289.09 852.042,1295.09 846.5,1300.5C 794.659,1233.82 742.992,1166.99 691.5,1100C 692.32,1097.85 693.82,1096.35 696,1095.5C 696.333,1090.17 696.667,1084.83 697,1079.5C 697.5,1079 698,1078.5 698.5,1078C 704.632,1078.41 710.632,1079.41 716.5,1081C 720.059,1076.7 723.725,1072.53 727.5,1068.5C 737.161,1081 746.661,1093.67 756,1106.5C 765.043,1115.47 775.876,1118.64 788.5,1116C 808.02,1109.45 816.853,1095.95 815,1075.5C 813.527,1071.22 811.527,1067.22 809,1063.5C 797.64,1048.31 786.473,1032.97 775.5,1017.5C 794.219,1000.63 814.886,986.462 837.5,975C 844.796,965.37 853.129,956.703 862.5,949C 866.717,946.549 871.05,944.715 875.5,943.5 Z"/></g>
<g><path style="opacity:1" fill="#fdfdfd" d="M 724.5,994.5 C 731.871,993.048 738.038,995.048 743,1000.5C 761.333,1025.83 779.667,1051.17 798,1076.5C 800.469,1090.89 794.302,1098.89 779.5,1100.5C 773.738,1100.03 769.238,1097.37 766,1092.5C 748.333,1068.5 730.667,1044.5 713,1020.5C 707.847,1007.83 711.68,999.162 724.5,994.5 Z"/></g>
<g><path style="opacity:1" fill="#fcfcfd" d="M 592.5,1086.5 C 599.594,1085.11 605.428,1087.11 610,1092.5C 629.055,1118.56 647.722,1144.89 666,1171.5C 665.398,1186.43 657.565,1193.26 642.5,1192C 638.421,1189.92 634.921,1187.09 632,1183.5C 614.911,1159.66 597.578,1135.99 580,1112.5C 574.689,1099.45 578.855,1090.79 592.5,1086.5 Z"/></g>
<g><path style="opacity:1" fill="#13228b" d="M 28.5,1176.5 C 75.5973,1206.21 126.264,1228.04 180.5,1242C 153.133,1247.09 126.8,1255.42 101.5,1267C 100,1268.5 98.5,1270 97,1271.5C 95.4301,1277.05 95.0968,1282.72 96,1288.5C 99.9953,1315.79 103.329,1343.13 106,1370.5C 85.9445,1359.44 68.6112,1345.11 54,1327.5C 45.4522,1277.16 36.9522,1226.83 28.5,1176.5 Z"/></g>
<g><path style="opacity:1" fill="#13228b" d="M 1126.5,1176.5 C 1127.5,1176.47 1128.16,1176.97 1128.5,1178C 1119.72,1228.51 1110.89,1279.01 1102,1329.5C 1087.19,1346.05 1070.19,1359.71 1051,1370.5C 1053.59,1342.78 1056.92,1315.11 1061,1287.5C 1061.84,1282.08 1061.51,1276.75 1060,1271.5C 1052.31,1265.57 1043.81,1261.07 1034.5,1258C 1015.46,1251.41 996.13,1246.08 976.5,1242C 1030.27,1228.37 1080.27,1206.54 1126.5,1176.5 Z"/></g>
<g><path style="opacity:1" fill="#12218b" d="M 213.5,1250.5 C 216.5,1250.5 219.5,1250.5 222.5,1250.5C 212.05,1291.42 200.717,1332.09 188.5,1372.5C 151.743,1349.56 129.41,1316.73 121.5,1274C 121.645,1273.23 121.978,1272.56 122.5,1272C 152.023,1260.87 182.356,1253.7 213.5,1250.5 Z"/></g>
<g><path style="opacity:1" fill="#12218b" d="M 934.5,1250.5 C 968.975,1252.86 1002.31,1260.19 1034.5,1272.5C 1031.96,1297.94 1022.46,1320.61 1006,1340.5C 995.356,1352.49 983.522,1362.99 970.5,1372C 969.552,1372.48 968.552,1372.65 967.5,1372.5C 956.501,1331.84 945.501,1291.17 934.5,1250.5 Z"/></g>
<g><path style="opacity:1" fill="#8782bd" d="M 111.5,1290.5 C 110.596,1291.21 110.263,1292.21 110.5,1293.5C 109.112,1288.71 108.612,1283.71 109,1278.5C 109.773,1282.53 110.606,1286.53 111.5,1290.5 Z"/></g>
<g><path style="opacity:1" fill="#8c88c0" d="M 1046.5,1292.5 C 1046.74,1291.21 1046.4,1290.21 1045.5,1289.5C 1046.27,1285.84 1047.1,1282.17 1048,1278.5C 1048.31,1283.36 1047.81,1288.03 1046.5,1292.5 Z"/></g>
<g><path style="opacity:1" fill="#14228b" d="M 1045.5,1289.5 C 1046.4,1290.21 1046.74,1291.21 1046.5,1292.5C 1040.74,1341.54 1034.58,1390.54 1028,1439.5C 1020.45,1483.36 998.616,1518.2 962.5,1544C 929.754,1566.48 894.087,1582.81 855.5,1593C 787.57,1609.96 718.57,1618.29 648.5,1618C 576.131,1619.25 503.798,1618.25 431.5,1615C 367.866,1611.4 306.533,1597.73 247.5,1574C 212.52,1558.99 182.686,1537.16 158,1508.5C 142.709,1488.31 133.043,1465.65 129,1440.5C 122.422,1391.54 116.256,1342.54 110.5,1293.5C 110.263,1292.21 110.596,1291.21 111.5,1290.5C 119.49,1321.32 135.49,1347.15 159.5,1368C 194.185,1395.51 233.185,1414.84 276.5,1426C 339.128,1441.9 402.794,1450.9 467.5,1453C 563.951,1457.65 660.284,1455.99 756.5,1448C 806.123,1443.08 854.79,1433.41 902.5,1419C 937.564,1407.97 969.231,1390.97 997.5,1368C 1021.99,1347.01 1037.99,1320.85 1045.5,1289.5 Z"/></g>
<g><path style="opacity:1" fill="#f9f9fc" d="M 995.5,1400.5 C 996.787,1401.87 997.453,1403.7 997.5,1406C 997.418,1409.24 996.918,1412.4 996,1415.5C 991.667,1418.83 987.333,1422.17 983,1425.5C 981.798,1450.66 979.132,1475.66 975,1500.5C 970.64,1505.36 965.806,1509.69 960.5,1513.5C 960.167,1512.67 959.833,1511.83 959.5,1511C 963.681,1486 965.847,1460.83 966,1435.5C 961.753,1437.71 957.586,1440.04 953.5,1442.5C 952.338,1437.53 952.171,1432.53 953,1427.5C 962.55,1421.3 972.383,1415.47 982.5,1410C 987.015,1406.97 991.349,1403.8 995.5,1400.5 Z"/></g>
<g><path style="opacity:1" fill="#fcfbfd" d="M 186.5,1431.5 C 186.44,1430.96 186.107,1430.62 185.5,1430.5C 184.183,1436.65 184.183,1442.65 185.5,1448.5C 185.244,1450.79 185.577,1452.96 186.5,1455C 192.366,1459.03 198.366,1462.86 204.5,1466.5C 205.145,1472.03 205.812,1477.53 206.5,1483C 205.975,1483.69 205.308,1484.19 204.5,1484.5C 198.663,1481.08 192.996,1477.42 187.5,1473.5C 187.167,1474.83 186.833,1476.17 186.5,1477.5C 188.059,1488.19 188.726,1498.86 188.5,1509.5C 184.189,1506.36 180.022,1503.02 176,1499.5C 174.956,1497.29 174.29,1494.95 174,1492.5C 169.368,1463.32 167.535,1433.99 168.5,1404.5C 181.203,1412.37 194.036,1420.03 207,1427.5C 207.499,1432.49 207.666,1437.49 207.5,1442.5C 200.096,1439.63 193.096,1435.96 186.5,1431.5 Z"/></g>
<g><path style="opacity:1" fill="#fafafc" d="M 933.5,1434.5 C 934.5,1434.5 935.5,1434.5 936.5,1434.5C 935.866,1467.64 933.366,1500.64 929,1533.5C 924.418,1536.88 919.585,1539.88 914.5,1542.5C 914.167,1541 913.833,1539.5 913.5,1538C 916.994,1505.93 919.161,1473.76 920,1441.5C 924.483,1439.01 928.983,1436.68 933.5,1434.5 Z"/></g>
<g><path style="opacity:1" fill="#fbfbfd" d="M 226.5,1436.5 C 231.536,1438.44 236.37,1440.77 241,1443.5C 241.333,1471.5 241.667,1499.5 242,1527.5C 248.536,1531.79 255.536,1535.12 263,1537.5C 264.339,1542.74 264.839,1548.07 264.5,1553.5C 252.312,1549.6 240.646,1544.43 229.5,1538C 228.874,1537.25 228.374,1536.42 228,1535.5C 225.479,1502.47 224.979,1469.47 226.5,1436.5 Z"/></g>
<g><path style="opacity:1" fill="#a9a5cf" d="M 186.5,1431.5 C 185.511,1436.98 185.178,1442.64 185.5,1448.5C 184.183,1442.65 184.183,1436.65 185.5,1430.5C 186.107,1430.62 186.44,1430.96 186.5,1431.5 Z"/></g>
<g><path style="opacity:1" fill="#fbfbfc" d="M 882.5,1451.5 C 895.186,1449.69 901.519,1455.19 901.5,1468C 901.695,1470.35 901.028,1472.35 899.5,1474C 895.167,1476.17 890.833,1478.33 886.5,1480.5C 885.682,1477.89 885.182,1475.23 885,1472.5C 879.476,1468.23 875.476,1469.57 873,1476.5C 871.53,1498.48 871.196,1520.48 872,1542.5C 875.093,1543.89 877.759,1543.23 880,1540.5C 881.863,1536.35 883.03,1532.02 883.5,1527.5C 888.484,1526.72 893.484,1526.06 898.5,1525.5C 898.005,1543.47 889.339,1555.31 872.5,1561C 862.439,1563.55 856.606,1559.72 855,1549.5C 853.981,1524.45 854.648,1499.45 857,1474.5C 860.978,1461.68 869.478,1454.02 882.5,1451.5 Z"/></g>
<g><path style="opacity:1" fill="#f9f9fb" d="M 276.5,1455.5 C 282.422,1455.67 287.755,1457.34 292.5,1460.5C 291.342,1487.46 291.176,1514.46 292,1541.5C 292.772,1549.32 296.439,1551.32 303,1547.5C 303.227,1519.15 303.727,1490.82 304.5,1462.5C 309.45,1463.06 314.283,1464.06 319,1465.5C 319.667,1493.5 319.667,1521.5 319,1549.5C 316.557,1566.81 307.391,1571.64 291.5,1564C 283.256,1558.36 278.423,1550.53 277,1540.5C 276.5,1512.17 276.333,1483.84 276.5,1455.5 Z"/></g>
<g><path style="opacity:1" fill="#fbfafc" d="M 816.5,1466.5 C 832.243,1466.07 838.91,1473.57 836.5,1489C 832.499,1491.22 828.333,1493.06 824,1494.5C 823.228,1494.36 822.561,1494.02 822,1493.5C 822.858,1486.7 820.025,1483.53 813.5,1484C 811.667,1484.5 810.5,1485.67 810,1487.5C 809.833,1490 809.667,1492.5 809.5,1495C 809.286,1498.57 809.953,1501.9 811.5,1505C 816.569,1507.87 821.902,1510.2 827.5,1512C 833.939,1516.38 837.106,1522.54 837,1530.5C 838.713,1542.34 837.047,1553.68 832,1564.5C 823.889,1573.74 813.723,1577.24 801.5,1575C 794.872,1570.34 791.539,1563.84 791.5,1555.5C 791.326,1553.31 791.993,1551.47 793.5,1550C 798.007,1548.11 802.673,1546.94 807.5,1546.5C 807.163,1550.31 807.663,1553.97 809,1557.5C 814.746,1560.8 818.413,1559.13 820,1552.5C 820.667,1547.17 820.667,1541.83 820,1536.5C 819.215,1534.71 818.049,1533.21 816.5,1532C 808.767,1530.06 802.267,1526.22 797,1520.5C 792.808,1510.24 791.474,1499.57 793,1488.5C 795.894,1475.77 803.727,1468.44 816.5,1466.5 Z"/></g>
<g><path style="opacity:1" fill="#fdfdfe" d="M 338.5,1468.5 C 350.483,1470.38 362.483,1472.21 374.5,1474C 375.471,1479.07 375.805,1484.24 375.5,1489.5C 368.088,1489.6 360.755,1488.94 353.5,1487.5C 353.334,1495.84 353.5,1504.17 354,1512.5C 360.044,1514.04 366.211,1515.04 372.5,1515.5C 372.5,1522.17 372.5,1528.83 372.5,1535.5C 366.179,1534.72 359.846,1534.06 353.5,1533.5C 353.334,1542.17 353.5,1550.84 354,1559.5C 360.789,1560.66 367.622,1561.83 374.5,1563C 375.471,1568.07 375.805,1573.24 375.5,1578.5C 363.129,1578.03 350.963,1576.36 339,1573.5C 338.5,1538.5 338.333,1503.5 338.5,1468.5 Z"/></g>
<g><path style="opacity:1" fill="#fcfbfd" d="M 771.5,1474.5 C 773.144,1474.29 774.644,1474.62 776,1475.5C 776.667,1480.5 776.667,1485.5 776,1490.5C 768.909,1491.76 761.742,1492.76 754.5,1493.5C 754.5,1501.83 754.5,1510.17 754.5,1518.5C 760.872,1518.13 767.205,1517.46 773.5,1516.5C 773.5,1523.5 773.5,1530.5 773.5,1537.5C 767.223,1537.55 761.056,1538.22 755,1539.5C 754.5,1548.16 754.334,1556.83 754.5,1565.5C 761.795,1564.47 769.129,1563.8 776.5,1563.5C 776.805,1568.76 776.471,1573.93 775.5,1579C 763.363,1581.57 751.196,1582.74 739,1582.5C 738.333,1548.17 738.333,1513.83 739,1479.5C 749.963,1478.08 760.796,1476.41 771.5,1474.5 Z"/></g>
<g><path style="opacity:1" fill="#fdfdfe" d="M 423.5,1542.5 C 423.892,1544.18 424.392,1545.85 425,1547.5C 425.5,1525.17 425.667,1502.84 425.5,1480.5C 429.833,1480.5 434.167,1480.5 438.5,1480.5C 438.5,1515.5 438.5,1550.5 438.5,1585.5C 432.696,1585.42 427.196,1584.42 422,1582.5C 416.535,1560.34 412.035,1538.01 408.5,1515.5C 408.217,1514.71 407.717,1514.04 407,1513.5C 406.5,1536.16 406.333,1558.83 406.5,1581.5C 402.384,1582.47 398.217,1582.13 394,1580.5C 393.5,1545.83 393.333,1511.17 393.5,1476.5C 398.812,1477.11 404.146,1477.61 409.5,1478C 410.701,1478.9 411.535,1480.07 412,1481.5C 416.44,1501.76 420.273,1522.09 423.5,1542.5 Z"/></g>
<g><path style="opacity:1" fill="#807db9" d="M 425.5,1480.5 C 425.667,1502.84 425.5,1525.17 425,1547.5C 424.392,1545.85 423.892,1544.18 423.5,1542.5C 424.167,1521.83 424.833,1501.17 425.5,1480.5 Z"/></g>
<g><path style="opacity:1" fill="#fbfbfd" d="M 459.5,1482.5 C 469.561,1482.75 479.561,1483.59 489.5,1485C 496.378,1487.89 500.545,1493.06 502,1500.5C 503.954,1524.15 503.954,1547.82 502,1571.5C 500.942,1578.8 497.109,1583.97 490.5,1587C 480.5,1587.67 470.5,1587.67 460.5,1587C 460,1586.5 459.5,1586 459,1585.5C 458.174,1551.1 458.341,1516.76 459.5,1482.5 Z"/></g>
<g><path style="opacity:1" fill="#fbfbfd" d="M 684.5,1482.5 C 692.917,1482.09 701.251,1482.59 709.5,1484C 714.513,1487.19 717.68,1491.69 719,1497.5C 721.668,1513.32 719.168,1528.16 711.5,1542C 714.518,1555.74 717.852,1569.41 721.5,1583C 721.095,1583.95 720.428,1584.61 719.5,1585C 714.798,1585.83 710.131,1585.66 705.5,1584.5C 702.195,1572.95 699.362,1561.28 697,1549.5C 695.599,1547.81 693.766,1547.14 691.5,1547.5C 691.667,1560.17 691.5,1572.84 691,1585.5C 690.5,1586 690,1586.5 689.5,1587C 684.845,1587.5 680.179,1587.67 675.5,1587.5C 675.5,1552.83 675.5,1518.17 675.5,1483.5C 678.713,1483.81 681.713,1483.48 684.5,1482.5 Z"/></g>
<g><path style="opacity:1" fill="#fafafc" d="M 631.5,1483.5 C 650.638,1481.31 659.638,1489.65 658.5,1508.5C 654.167,1509.83 649.834,1511.17 645.5,1512.5C 644.478,1509.56 643.645,1506.56 643,1503.5C 640.177,1498.6 636.843,1498.27 633,1502.5C 631.413,1524.47 631.08,1546.47 632,1568.5C 633.297,1574.15 636.464,1575.65 641.5,1573C 643.183,1569.38 643.85,1565.55 643.5,1561.5C 648.5,1562.17 653.5,1562.83 658.5,1563.5C 659.167,1585.33 648.834,1593.83 627.5,1589C 619.868,1583.57 616.035,1576.07 616,1566.5C 615.104,1544.14 615.437,1521.81 617,1499.5C 618.947,1491.39 623.78,1486.06 631.5,1483.5 Z"/></g>
<g><path style="opacity:1" fill="#fafafc" d="M 534.5,1484.5 C 540.176,1484.33 545.843,1484.5 551.5,1485C 558.835,1487.67 563.335,1492.84 565,1500.5C 566.988,1524.84 566.988,1549.17 565,1573.5C 561.109,1587.54 551.942,1593.04 537.5,1590C 528.473,1587.29 523.306,1581.12 522,1571.5C 521.333,1547.83 521.333,1524.17 522,1500.5C 523.807,1493.21 527.973,1487.87 534.5,1484.5 Z"/></g>
<g><path style="opacity:1" fill="#13228b" d="M 691.5,1498.5 C 701.592,1496.96 705.592,1501.29 703.5,1511.5C 703.805,1516.4 702.972,1521.07 701,1525.5C 698.096,1527.23 694.93,1527.89 691.5,1527.5C 691.5,1517.83 691.5,1508.17 691.5,1498.5 Z"/></g>
<g><path style="opacity:1" fill="#1a258d" d="M 474.5,1499.5 C 482.399,1498.24 486.566,1501.57 487,1509.5C 487.667,1527.17 487.667,1544.83 487,1562.5C 486.083,1570.11 482.083,1572.78 475,1570.5C 474.5,1546.84 474.333,1523.17 474.5,1499.5 Z"/></g>
<g><path style="opacity:1" fill="#1e268d" d="M 540.5,1500.5 C 543.97,1499.87 546.804,1500.87 549,1503.5C 550.527,1522.81 550.861,1542.14 550,1561.5C 549.74,1565.25 549.073,1568.92 548,1572.5C 543.882,1575.59 540.549,1574.93 538,1570.5C 537.333,1548.5 537.333,1526.5 538,1504.5C 538.662,1503.02 539.496,1501.68 540.5,1500.5 Z"/></g>
<g><path style="opacity:1" fill="#bfbbda" d="M 408.5,1515.5 C 407.833,1537.5 407.167,1559.5 406.5,1581.5C 406.333,1558.83 406.5,1536.16 407,1513.5C 407.717,1514.04 408.217,1514.71 408.5,1515.5 Z"/></g>
</svg>
